<svg width="600" height="300" viewBox="0 0 357 49" fill="none" xmlns="http://www.w3.org/2000/svg">
<path d="M12.7074 35V8.81818H22.5256C24.5369 8.81818 26.2244 9.16761 27.5881 9.86648C28.9602 10.5653 29.9957 11.5455 30.6946 12.8068C31.402 14.0597 31.7557 15.5213 31.7557 17.1918C31.7557 18.8707 31.3977 20.3281 30.6818 21.5639C29.9744 22.7912 28.9304 23.7415 27.5497 24.4148C26.169 25.0795 24.473 25.4119 22.4616 25.4119H15.4688V21.4744H21.8224C22.9986 21.4744 23.9616 21.3125 24.7116 20.9886C25.4616 20.6562 26.0156 20.1747 26.3736 19.544C26.7401 18.9048 26.9233 18.1207 26.9233 17.1918C26.9233 16.2628 26.7401 15.4702 26.3736 14.8139C26.0071 14.1491 25.4489 13.6463 24.6989 13.3054C23.9489 12.956 22.9815 12.7812 21.7969 12.7812H17.4503V35H12.7074ZM26.233 23.1364L32.7145 35H27.4219L21.0554 23.1364H26.233ZM44.201 35.3835C42.2834 35.3835 40.6214 34.9616 39.2152 34.1179C37.8089 33.2741 36.718 32.0937 35.9425 30.5767C35.1754 29.0597 34.7919 27.2869 34.7919 25.2585C34.7919 23.2301 35.1754 21.4531 35.9425 19.9276C36.718 18.402 37.8089 17.2173 39.2152 16.3736C40.6214 15.5298 42.2834 15.108 44.201 15.108C46.1186 15.108 47.7805 15.5298 49.1868 16.3736C50.593 17.2173 51.6797 18.402 52.4467 19.9276C53.2223 21.4531 53.6101 23.2301 53.6101 25.2585C53.6101 27.2869 53.2223 29.0597 52.4467 30.5767C51.6797 32.0937 50.593 33.2741 49.1868 34.1179C47.7805 34.9616 46.1186 35.3835 44.201 35.3835ZM44.2266 31.6761C45.2663 31.6761 46.1357 31.3906 46.8345 30.8196C47.5334 30.2401 48.0533 29.4645 48.3942 28.4929C48.7436 27.5213 48.9183 26.4389 48.9183 25.2457C48.9183 24.044 48.7436 22.9574 48.3942 21.9858C48.0533 21.0057 47.5334 20.2259 46.8345 19.6463C46.1357 19.0668 45.2663 18.777 44.2266 18.777C43.1612 18.777 42.2749 19.0668 41.5675 19.6463C40.8686 20.2259 40.3445 21.0057 39.995 21.9858C39.6541 22.9574 39.4837 24.044 39.4837 25.2457C39.4837 26.4389 39.6541 27.5213 39.995 28.4929C40.3445 29.4645 40.8686 30.2401 41.5675 30.8196C42.2749 31.3906 43.1612 31.6761 44.2266 31.6761ZM57.538 15.3636H62.1658V36.125C62.1658 37.5398 61.8974 38.7074 61.3604 39.6278C60.8235 40.5483 60.0479 41.2344 59.0337 41.6861C58.0195 42.1378 56.788 42.3636 55.3391 42.3636C55.1687 42.3636 55.011 42.3594 54.8661 42.3509C54.7212 42.3509 54.5636 42.3466 54.3931 42.3381V38.5668C54.521 38.5753 54.636 38.5795 54.7383 38.5795C54.8406 38.5881 54.9471 38.5923 55.0579 38.5923C55.9442 38.5923 56.5792 38.375 56.9627 37.9403C57.3462 37.5142 57.538 36.8878 57.538 36.0611V15.3636ZM59.8391 12.5767C59.0977 12.5767 58.4627 12.3338 57.9343 11.848C57.4144 11.3537 57.1545 10.7614 57.1545 10.071C57.1545 9.37216 57.4144 8.77983 57.9343 8.29403C58.4627 7.79971 59.0977 7.55256 59.8391 7.55256C60.5721 7.55256 61.1985 7.79971 61.7184 8.29403C62.2468 8.77983 62.511 9.37216 62.511 10.071C62.511 10.7614 62.2468 11.3537 61.7184 11.848C61.1985 12.3338 60.5721 12.5767 59.8391 12.5767ZM75.4645 42.7727C73.8026 42.7727 72.375 42.5469 71.1818 42.0952C69.9886 41.652 69.0298 41.0554 68.3054 40.3054C67.581 39.5554 67.0781 38.7244 66.7969 37.8125L70.9645 36.8026C71.152 37.1861 71.4247 37.5653 71.7827 37.9403C72.1406 38.3239 72.6222 38.6392 73.2273 38.8864C73.8409 39.142 74.6122 39.2699 75.5412 39.2699C76.8537 39.2699 77.9403 38.9503 78.8011 38.3111C79.6619 37.6804 80.0923 36.6406 80.0923 35.1918V31.4716H79.8622C79.6236 31.9489 79.2741 32.4389 78.8139 32.9418C78.3622 33.4446 77.7614 33.8665 77.0114 34.2074C76.2699 34.5483 75.3366 34.7188 74.2116 34.7188C72.7031 34.7188 71.3352 34.3651 70.108 33.6577C68.8892 32.9418 67.9176 31.8764 67.1932 30.4616C66.4773 29.0384 66.1193 27.2571 66.1193 25.1179C66.1193 22.9616 66.4773 21.142 67.1932 19.6591C67.9176 18.1676 68.8935 17.0384 70.1207 16.2713C71.348 15.4957 72.7159 15.108 74.2244 15.108C75.375 15.108 76.321 15.304 77.0625 15.696C77.8125 16.0795 78.4091 16.544 78.8523 17.0895C79.2955 17.6264 79.6321 18.1335 79.8622 18.6108H80.1179V15.3636H84.6818V35.3196C84.6818 36.9986 84.2813 38.3878 83.4801 39.4872C82.679 40.5866 81.5838 41.4091 80.1946 41.9545C78.8054 42.5 77.2287 42.7727 75.4645 42.7727ZM75.5028 31.0881C76.483 31.0881 77.3182 30.8494 78.0085 30.3722C78.6989 29.8949 79.223 29.2088 79.581 28.3139C79.9389 27.419 80.1179 26.3452 80.1179 25.0923C80.1179 23.8565 79.9389 22.7741 79.581 21.8452C79.2315 20.9162 78.7116 20.196 78.0213 19.6847C77.3395 19.1648 76.5 18.9048 75.5028 18.9048C74.4716 18.9048 73.6108 19.1733 72.9205 19.7102C72.2301 20.2472 71.7102 20.9844 71.3608 21.9219C71.0114 22.8509 70.8366 23.9077 70.8366 25.0923C70.8366 26.294 71.0114 27.3466 71.3608 28.25C71.7188 29.1449 72.2429 29.8437 72.9332 30.3466C73.6321 30.8409 74.4886 31.0881 75.5028 31.0881ZM95.0753 35.3963C93.831 35.3963 92.7102 35.1747 91.7131 34.7315C90.7244 34.2798 89.9403 33.6151 89.3608 32.7372C88.7898 31.8594 88.5043 30.777 88.5043 29.4901C88.5043 28.3821 88.7088 27.4659 89.1179 26.7415C89.527 26.017 90.0852 25.4375 90.7926 25.0028C91.5 24.5682 92.2969 24.2401 93.1832 24.0185C94.0781 23.7884 95.0028 23.6222 95.9574 23.5199C97.108 23.4006 98.0412 23.294 98.7571 23.2003C99.473 23.098 99.9929 22.9446 100.317 22.7401C100.649 22.527 100.815 22.1989 100.815 21.7557V21.679C100.815 20.7159 100.53 19.9702 99.9588 19.4418C99.3878 18.9134 98.5653 18.6491 97.4915 18.6491C96.358 18.6491 95.4588 18.8963 94.794 19.3906C94.1378 19.8849 93.6946 20.4687 93.4645 21.142L89.1435 20.5284C89.4844 19.3352 90.0469 18.3381 90.831 17.5369C91.6151 16.7273 92.5739 16.1222 93.7074 15.7216C94.8409 15.3125 96.0938 15.108 97.4659 15.108C98.4119 15.108 99.3537 15.2188 100.291 15.4403C101.229 15.6619 102.085 16.0284 102.861 16.5398C103.636 17.0426 104.259 17.7287 104.727 18.598C105.205 19.4673 105.443 20.554 105.443 21.858V35H100.994V32.3026H100.841C100.56 32.848 100.163 33.3594 99.652 33.8366C99.1491 34.3054 98.5142 34.6847 97.7472 34.9744C96.9886 35.2557 96.098 35.3963 95.0753 35.3963ZM96.277 31.9957C97.206 31.9957 98.0114 31.8125 98.6932 31.446C99.375 31.071 99.8991 30.5767 100.266 29.9631C100.641 29.3494 100.828 28.6804 100.828 27.956V25.642C100.683 25.7614 100.436 25.8722 100.087 25.9744C99.7457 26.0767 99.3622 26.1662 98.9361 26.2429C98.5099 26.3196 98.0881 26.3878 97.6705 26.4474C97.2528 26.5071 96.8906 26.5582 96.5838 26.6009C95.8935 26.6946 95.2756 26.848 94.7301 27.0611C94.1847 27.2741 93.7543 27.5724 93.4389 27.956C93.1236 28.331 92.9659 28.8168 92.9659 29.4134C92.9659 30.2656 93.277 30.9091 93.8991 31.3438C94.5213 31.7784 95.3139 31.9957 96.277 31.9957ZM110.097 35V15.3636H114.584V18.6364H114.788C115.146 17.5028 115.76 16.6293 116.629 16.0156C117.507 15.3935 118.509 15.0824 119.634 15.0824C119.889 15.0824 120.175 15.0952 120.49 15.1207C120.814 15.1378 121.082 15.1676 121.295 15.2102V19.4673C121.099 19.3991 120.788 19.3395 120.362 19.2884C119.945 19.2287 119.54 19.1989 119.148 19.1989C118.304 19.1989 117.545 19.3821 116.872 19.7486C116.207 20.1065 115.683 20.6051 115.3 21.2443C114.916 21.8835 114.724 22.6207 114.724 23.456V35H110.097Z" fill="#228822"/>
<path d="M123.424 12.794V8.81818H144.313V12.794H136.221V35H131.516V12.794H123.424ZM146.097 35V15.3636H150.584V18.6364H150.788C151.146 17.5028 151.76 16.6293 152.629 16.0156C153.507 15.3935 154.509 15.0824 155.634 15.0824C155.889 15.0824 156.175 15.0952 156.49 15.1207C156.814 15.1378 157.082 15.1676 157.295 15.2102V19.4673C157.099 19.3991 156.788 19.3395 156.362 19.2884C155.945 19.2287 155.54 19.1989 155.148 19.1989C154.304 19.1989 153.545 19.3821 152.872 19.7486C152.207 20.1065 151.683 20.6051 151.3 21.2443C150.916 21.8835 150.724 22.6207 150.724 23.456V35H146.097ZM165.669 35.3963C164.425 35.3963 163.304 35.1747 162.307 34.7315C161.318 34.2798 160.534 33.6151 159.955 32.7372C159.384 31.8594 159.098 30.777 159.098 29.4901C159.098 28.3821 159.303 27.4659 159.712 26.7415C160.121 26.017 160.679 25.4375 161.386 25.0028C162.094 24.5682 162.891 24.2401 163.777 24.0185C164.672 23.7884 165.597 23.6222 166.551 23.5199C167.702 23.4006 168.635 23.294 169.351 23.2003C170.067 23.098 170.587 22.9446 170.911 22.7401C171.243 22.527 171.409 22.1989 171.409 21.7557V21.679C171.409 20.7159 171.124 19.9702 170.553 19.4418C169.982 18.9134 169.159 18.6491 168.085 18.6491C166.952 18.6491 166.053 18.8963 165.388 19.3906C164.732 19.8849 164.288 20.4687 164.058 21.142L159.737 20.5284C160.078 19.3352 160.641 18.3381 161.425 17.5369C162.209 16.7273 163.168 16.1222 164.301 15.7216C165.435 15.3125 166.688 15.108 168.06 15.108C169.006 15.108 169.947 15.2188 170.885 15.4403C171.822 15.6619 172.679 16.0284 173.455 16.5398C174.23 17.0426 174.852 17.7287 175.321 18.598C175.798 19.4673 176.037 20.554 176.037 21.858V35H171.588V32.3026H171.435C171.153 32.848 170.757 33.3594 170.246 33.8366C169.743 34.3054 169.108 34.6847 168.341 34.9744C167.582 35.2557 166.692 35.3963 165.669 35.3963ZM166.871 31.9957C167.8 31.9957 168.605 31.8125 169.287 31.446C169.969 31.071 170.493 30.5767 170.859 29.9631C171.234 29.3494 171.422 28.6804 171.422 27.956V25.642C171.277 25.7614 171.03 25.8722 170.68 25.9744C170.339 26.0767 169.956 26.1662 169.53 26.2429C169.104 26.3196 168.682 26.3878 168.264 26.4474C167.847 26.5071 167.484 26.5582 167.178 26.6009C166.487 26.6946 165.869 26.848 165.324 27.0611C164.778 27.2741 164.348 27.5724 164.033 27.956C163.717 28.331 163.56 28.8168 163.56 29.4134C163.56 30.2656 163.871 30.9091 164.493 31.3438C165.115 31.7784 165.908 31.9957 166.871 31.9957ZM189.256 35.3835C187.295 35.3835 185.612 34.9531 184.206 34.0923C182.808 33.2315 181.73 32.0426 180.972 30.5256C180.222 29 179.847 27.2443 179.847 25.2585C179.847 23.2642 180.23 21.5043 180.997 19.9787C181.764 18.4446 182.847 17.2514 184.244 16.3991C185.651 15.5384 187.313 15.108 189.23 15.108C190.824 15.108 192.234 15.402 193.462 15.9901C194.697 16.5696 195.682 17.392 196.415 18.4574C197.148 19.5142 197.565 20.75 197.668 22.1648H193.244C193.065 21.2187 192.639 20.4304 191.966 19.7997C191.301 19.1605 190.411 18.8409 189.294 18.8409C188.348 18.8409 187.517 19.0966 186.801 19.608C186.085 20.1108 185.527 20.8352 185.126 21.7812C184.734 22.7273 184.538 23.8608 184.538 25.1818C184.538 26.5199 184.734 27.6705 185.126 28.6335C185.518 29.5881 186.068 30.3253 186.776 30.8452C187.491 31.3565 188.331 31.6122 189.294 31.6122C189.976 31.6122 190.585 31.4844 191.122 31.2287C191.668 30.9645 192.124 30.5852 192.49 30.0909C192.857 29.5966 193.108 28.9957 193.244 28.2884H197.668C197.557 29.6776 197.148 30.9091 196.44 31.983C195.733 33.0483 194.77 33.8835 193.551 34.4886C192.332 35.0852 190.901 35.3835 189.256 35.3835ZM205.686 28.8381L205.674 23.2514H206.415L213.472 15.3636H218.88L210.199 25.0284H209.24L205.686 28.8381ZM201.468 35V8.81818H206.096V35H201.468ZM213.792 35L207.4 26.0639L210.519 22.804L219.327 35H213.792ZM229.848 35.3835C227.88 35.3835 226.179 34.9744 224.748 34.1562C223.324 33.3295 222.229 32.1619 221.462 30.6534C220.695 29.1364 220.311 27.3509 220.311 25.2969C220.311 23.277 220.695 21.5043 221.462 19.9787C222.238 18.4446 223.32 17.2514 224.709 16.3991C226.098 15.5384 227.73 15.108 229.605 15.108C230.816 15.108 231.958 15.304 233.032 15.696C234.114 16.0795 235.069 16.6761 235.895 17.4858C236.73 18.2955 237.387 19.3267 237.864 20.5795C238.341 21.8239 238.58 23.3068 238.58 25.0284V26.4474H222.485V23.3281H234.144C234.135 22.4418 233.944 21.6534 233.569 20.9631C233.194 20.2642 232.669 19.7145 231.996 19.3139C231.331 18.9134 230.556 18.7131 229.669 18.7131C228.723 18.7131 227.892 18.9432 227.176 19.4034C226.461 19.8551 225.902 20.4517 225.502 21.1932C225.11 21.9261 224.909 22.7315 224.901 23.6094V26.3324C224.901 27.4744 225.11 28.4545 225.527 29.2727C225.945 30.0824 226.529 30.7045 227.279 31.1392C228.029 31.5653 228.907 31.7784 229.912 31.7784C230.586 31.7784 231.195 31.6847 231.74 31.4972C232.286 31.3011 232.759 31.0156 233.159 30.6406C233.56 30.2656 233.863 29.8011 234.067 29.2472L238.388 29.733C238.115 30.875 237.596 31.8722 236.828 32.7244C236.07 33.5682 235.098 34.2244 233.914 34.6932C232.729 35.1534 231.374 35.3835 229.848 35.3835ZM242.495 35V15.3636H246.982V18.6364H247.187C247.545 17.5028 248.158 16.6293 249.028 16.0156C249.906 15.3935 250.907 15.0824 252.032 15.0824C252.288 15.0824 252.573 15.0952 252.888 15.1207C253.212 15.1378 253.481 15.1676 253.694 15.2102V19.4673C253.498 19.3991 253.187 19.3395 252.761 19.2884C252.343 19.2287 251.938 19.1989 251.546 19.1989C250.702 19.1989 249.944 19.3821 249.271 19.7486C248.606 20.1065 248.082 20.6051 247.698 21.2443C247.315 21.8835 247.123 22.6207 247.123 23.456V35H242.495Z" fill="black" fill-opacity="0.69"/>
<path d="M10.125 42.1591H121.999V44.6136H10.125V42.1591Z" fill="#228822"/>
<path d="M121.992 42.1591H254.397V44.6136H121.992V42.1591Z" fill="black" fill-opacity="0.69"/>
</svg>
