<svg width="363" height="54" viewBox="0 0 363 54" fill="none" xmlns="http://www.w3.org/2000/svg">
<rect y="4" width="50" height="50" fill="#228822"/>
<path d="M4.31534 47V11.3636H16.3565C19.1406 11.3636 21.4259 11.8393 23.2124 12.7905C24.9988 13.7301 26.3213 15.0236 27.1797 16.6708C28.0381 18.3181 28.4673 20.1915 28.4673 22.2912C28.4673 24.3909 28.0381 26.2527 27.1797 27.8768C26.3213 29.5008 25.0046 30.7769 23.2298 31.7049C21.4549 32.6213 19.187 33.0795 16.4261 33.0795H6.68182V29.1818H16.2869C18.1894 29.1818 19.7206 28.9034 20.8807 28.3466C22.0523 27.7898 22.8991 27.0009 23.4212 25.9801C23.9548 24.9477 24.2216 23.718 24.2216 22.2912C24.2216 20.8643 23.9548 19.6173 23.4212 18.5501C22.8875 17.4828 22.0349 16.6592 20.8633 16.0792C19.6916 15.4876 18.143 15.1918 16.2173 15.1918H8.63068V47H4.31534ZM21.0895 30.9915L29.8594 47H24.848L16.2173 30.9915H21.0895ZM46.7249 20.2727V23.7528H32.874V20.2727H46.7249ZM36.911 13.8693H41.0175V39.3438C41.0175 40.5038 41.1857 41.3738 41.5221 41.9538C41.8701 42.5223 42.3109 42.9051 42.8445 43.1023C43.3898 43.2879 43.964 43.3807 44.5672 43.3807C45.0196 43.3807 45.3908 43.3575 45.6808 43.3111C45.9709 43.2531 46.2029 43.2067 46.3769 43.1719L47.2121 46.8608C46.9337 46.9652 46.5451 47.0696 46.0463 47.174C45.5474 47.29 44.9152 47.348 44.1496 47.348C42.9896 47.348 41.8527 47.0986 40.7391 46.5998C39.637 46.101 38.7206 45.3411 37.9898 44.3203C37.2706 43.2995 36.911 42.0118 36.911 40.4574V13.8693Z" fill="white"/>
<path d="M62.7074 42V15.8182H72.5256C74.5369 15.8182 76.2244 16.1676 77.5881 16.8665C78.9602 17.5653 79.9957 18.5455 80.6946 19.8068C81.402 21.0597 81.7557 22.5213 81.7557 24.1918C81.7557 25.8707 81.3977 27.3281 80.6818 28.5639C79.9744 29.7912 78.9304 30.7415 77.5497 31.4148C76.169 32.0795 74.473 32.4119 72.4616 32.4119H65.4688V28.4744H71.8224C72.9986 28.4744 73.9616 28.3125 74.7116 27.9886C75.4616 27.6562 76.0156 27.1747 76.3736 26.544C76.7401 25.9048 76.9233 25.1207 76.9233 24.1918C76.9233 23.2628 76.7401 22.4702 76.3736 21.8139C76.0071 21.1491 75.4489 20.6463 74.6989 20.3054C73.9489 19.956 72.9815 19.7812 71.7969 19.7812H67.4503V42H62.7074ZM76.233 30.1364L82.7145 42H77.4219L71.0554 30.1364H76.233ZM94.201 42.3835C92.2834 42.3835 90.6214 41.9616 89.2152 41.1179C87.8089 40.2741 86.718 39.0937 85.9425 37.5767C85.1754 36.0597 84.7919 34.2869 84.7919 32.2585C84.7919 30.2301 85.1754 28.4531 85.9425 26.9276C86.718 25.402 87.8089 24.2173 89.2152 23.3736C90.6214 22.5298 92.2834 22.108 94.201 22.108C96.1186 22.108 97.7805 22.5298 99.1868 23.3736C100.593 24.2173 101.68 25.402 102.447 26.9276C103.222 28.4531 103.61 30.2301 103.61 32.2585C103.61 34.2869 103.222 36.0597 102.447 37.5767C101.68 39.0937 100.593 40.2741 99.1868 41.1179C97.7805 41.9616 96.1186 42.3835 94.201 42.3835ZM94.2266 38.6761C95.2663 38.6761 96.1357 38.3906 96.8345 37.8196C97.5334 37.2401 98.0533 36.4645 98.3942 35.4929C98.7436 34.5213 98.9183 33.4389 98.9183 32.2457C98.9183 31.044 98.7436 29.9574 98.3942 28.9858C98.0533 28.0057 97.5334 27.2259 96.8345 26.6463C96.1357 26.0668 95.2663 25.777 94.2266 25.777C93.1612 25.777 92.2749 26.0668 91.5675 26.6463C90.8686 27.2259 90.3445 28.0057 89.995 28.9858C89.6541 29.9574 89.4837 31.044 89.4837 32.2457C89.4837 33.4389 89.6541 34.5213 89.995 35.4929C90.3445 36.4645 90.8686 37.2401 91.5675 37.8196C92.2749 38.3906 93.1612 38.6761 94.2266 38.6761ZM107.538 22.3636H112.166V43.125C112.166 44.5398 111.897 45.7074 111.36 46.6278C110.824 47.5483 110.048 48.2344 109.034 48.6861C108.02 49.1378 106.788 49.3636 105.339 49.3636C105.169 49.3636 105.011 49.3594 104.866 49.3509C104.721 49.3509 104.564 49.3466 104.393 49.3381V45.5668C104.521 45.5753 104.636 45.5795 104.738 45.5795C104.841 45.5881 104.947 45.5923 105.058 45.5923C105.944 45.5923 106.579 45.375 106.963 44.9403C107.346 44.5142 107.538 43.8878 107.538 43.0611V22.3636ZM109.839 19.5767C109.098 19.5767 108.463 19.3338 107.934 18.848C107.414 18.3537 107.154 17.7614 107.154 17.071C107.154 16.3722 107.414 15.7798 107.934 15.294C108.463 14.7997 109.098 14.5526 109.839 14.5526C110.572 14.5526 111.199 14.7997 111.718 15.294C112.247 15.7798 112.511 16.3722 112.511 17.071C112.511 17.7614 112.247 18.3537 111.718 18.848C111.199 19.3338 110.572 19.5767 109.839 19.5767ZM125.464 49.7727C123.803 49.7727 122.375 49.5469 121.182 49.0952C119.989 48.652 119.03 48.0554 118.305 47.3054C117.581 46.5554 117.078 45.7244 116.797 44.8125L120.964 43.8026C121.152 44.1861 121.425 44.5653 121.783 44.9403C122.141 45.3239 122.622 45.6392 123.227 45.8864C123.841 46.142 124.612 46.2699 125.541 46.2699C126.854 46.2699 127.94 45.9503 128.801 45.3111C129.662 44.6804 130.092 43.6406 130.092 42.1918V38.4716H129.862C129.624 38.9489 129.274 39.4389 128.814 39.9418C128.362 40.4446 127.761 40.8665 127.011 41.2074C126.27 41.5483 125.337 41.7188 124.212 41.7188C122.703 41.7188 121.335 41.3651 120.108 40.6577C118.889 39.9418 117.918 38.8764 117.193 37.4616C116.477 36.0384 116.119 34.2571 116.119 32.1179C116.119 29.9616 116.477 28.142 117.193 26.6591C117.918 25.1676 118.893 24.0384 120.121 23.2713C121.348 22.4957 122.716 22.108 124.224 22.108C125.375 22.108 126.321 22.304 127.062 22.696C127.812 23.0795 128.409 23.544 128.852 24.0895C129.295 24.6264 129.632 25.1335 129.862 25.6108H130.118V22.3636H134.682V42.3196C134.682 43.9986 134.281 45.3878 133.48 46.4872C132.679 47.5866 131.584 48.4091 130.195 48.9545C128.805 49.5 127.229 49.7727 125.464 49.7727ZM125.503 38.0881C126.483 38.0881 127.318 37.8494 128.009 37.3722C128.699 36.8949 129.223 36.2088 129.581 35.3139C129.939 34.419 130.118 33.3452 130.118 32.0923C130.118 30.8565 129.939 29.7741 129.581 28.8452C129.232 27.9162 128.712 27.196 128.021 26.6847C127.339 26.1648 126.5 25.9048 125.503 25.9048C124.472 25.9048 123.611 26.1733 122.92 26.7102C122.23 27.2472 121.71 27.9844 121.361 28.9219C121.011 29.8509 120.837 30.9077 120.837 32.0923C120.837 33.294 121.011 34.3466 121.361 35.25C121.719 36.1449 122.243 36.8437 122.933 37.3466C123.632 37.8409 124.489 38.0881 125.503 38.0881ZM145.075 42.3963C143.831 42.3963 142.71 42.1747 141.713 41.7315C140.724 41.2798 139.94 40.6151 139.361 39.7372C138.79 38.8594 138.504 37.777 138.504 36.4901C138.504 35.3821 138.709 34.4659 139.118 33.7415C139.527 33.017 140.085 32.4375 140.793 32.0028C141.5 31.5682 142.297 31.2401 143.183 31.0185C144.078 30.7884 145.003 30.6222 145.957 30.5199C147.108 30.4006 148.041 30.294 148.757 30.2003C149.473 30.098 149.993 29.9446 150.317 29.7401C150.649 29.527 150.815 29.1989 150.815 28.7557V28.679C150.815 27.7159 150.53 26.9702 149.959 26.4418C149.388 25.9134 148.565 25.6491 147.491 25.6491C146.358 25.6491 145.459 25.8963 144.794 26.3906C144.138 26.8849 143.695 27.4687 143.464 28.142L139.143 27.5284C139.484 26.3352 140.047 25.3381 140.831 24.5369C141.615 23.7273 142.574 23.1222 143.707 22.7216C144.841 22.3125 146.094 22.108 147.466 22.108C148.412 22.108 149.354 22.2188 150.291 22.4403C151.229 22.6619 152.085 23.0284 152.861 23.5398C153.636 24.0426 154.259 24.7287 154.727 25.598C155.205 26.4673 155.443 27.554 155.443 28.858V42H150.994V39.3026H150.841C150.56 39.848 150.163 40.3594 149.652 40.8366C149.149 41.3054 148.514 41.6847 147.747 41.9744C146.989 42.2557 146.098 42.3963 145.075 42.3963ZM146.277 38.9957C147.206 38.9957 148.011 38.8125 148.693 38.446C149.375 38.071 149.899 37.5767 150.266 36.9631C150.641 36.3494 150.828 35.6804 150.828 34.956V32.642C150.683 32.7614 150.436 32.8722 150.087 32.9744C149.746 33.0767 149.362 33.1662 148.936 33.2429C148.51 33.3196 148.088 33.3878 147.67 33.4474C147.253 33.5071 146.891 33.5582 146.584 33.6009C145.893 33.6946 145.276 33.848 144.73 34.0611C144.185 34.2741 143.754 34.5724 143.439 34.956C143.124 35.331 142.966 35.8168 142.966 36.4134C142.966 37.2656 143.277 37.9091 143.899 38.3438C144.521 38.7784 145.314 38.9957 146.277 38.9957ZM160.097 42V22.3636H164.584V25.6364H164.788C165.146 24.5028 165.76 23.6293 166.629 23.0156C167.507 22.3935 168.509 22.0824 169.634 22.0824C169.889 22.0824 170.175 22.0952 170.49 22.1207C170.814 22.1378 171.082 22.1676 171.295 22.2102V26.4673C171.099 26.3991 170.788 26.3395 170.362 26.2884C169.945 26.2287 169.54 26.1989 169.148 26.1989C168.304 26.1989 167.545 26.3821 166.872 26.7486C166.207 27.1065 165.683 27.6051 165.3 28.2443C164.916 28.8835 164.724 29.6207 164.724 30.456V42H160.097Z" fill="#228822"/>
<path d="M173.424 19.794V15.8182H194.313V19.794H186.221V42H181.516V19.794H173.424ZM196.097 42V22.3636H200.584V25.6364H200.788C201.146 24.5028 201.76 23.6293 202.629 23.0156C203.507 22.3935 204.509 22.0824 205.634 22.0824C205.889 22.0824 206.175 22.0952 206.49 22.1207C206.814 22.1378 207.082 22.1676 207.295 22.2102V26.4673C207.099 26.3991 206.788 26.3395 206.362 26.2884C205.945 26.2287 205.54 26.1989 205.148 26.1989C204.304 26.1989 203.545 26.3821 202.872 26.7486C202.207 27.1065 201.683 27.6051 201.3 28.2443C200.916 28.8835 200.724 29.6207 200.724 30.456V42H196.097ZM215.669 42.3963C214.425 42.3963 213.304 42.1747 212.307 41.7315C211.318 41.2798 210.534 40.6151 209.955 39.7372C209.384 38.8594 209.098 37.777 209.098 36.4901C209.098 35.3821 209.303 34.4659 209.712 33.7415C210.121 33.017 210.679 32.4375 211.386 32.0028C212.094 31.5682 212.891 31.2401 213.777 31.0185C214.672 30.7884 215.597 30.6222 216.551 30.5199C217.702 30.4006 218.635 30.294 219.351 30.2003C220.067 30.098 220.587 29.9446 220.911 29.7401C221.243 29.527 221.409 29.1989 221.409 28.7557V28.679C221.409 27.7159 221.124 26.9702 220.553 26.4418C219.982 25.9134 219.159 25.6491 218.085 25.6491C216.952 25.6491 216.053 25.8963 215.388 26.3906C214.732 26.8849 214.288 27.4687 214.058 28.142L209.737 27.5284C210.078 26.3352 210.641 25.3381 211.425 24.5369C212.209 23.7273 213.168 23.1222 214.301 22.7216C215.435 22.3125 216.688 22.108 218.06 22.108C219.006 22.108 219.947 22.2188 220.885 22.4403C221.822 22.6619 222.679 23.0284 223.455 23.5398C224.23 24.0426 224.852 24.7287 225.321 25.598C225.798 26.4673 226.037 27.554 226.037 28.858V42H221.588V39.3026H221.435C221.153 39.848 220.757 40.3594 220.246 40.8366C219.743 41.3054 219.108 41.6847 218.341 41.9744C217.582 42.2557 216.692 42.3963 215.669 42.3963ZM216.871 38.9957C217.8 38.9957 218.605 38.8125 219.287 38.446C219.969 38.071 220.493 37.5767 220.859 36.9631C221.234 36.3494 221.422 35.6804 221.422 34.956V32.642C221.277 32.7614 221.03 32.8722 220.68 32.9744C220.339 33.0767 219.956 33.1662 219.53 33.2429C219.104 33.3196 218.682 33.3878 218.264 33.4474C217.847 33.5071 217.484 33.5582 217.178 33.6009C216.487 33.6946 215.869 33.848 215.324 34.0611C214.778 34.2741 214.348 34.5724 214.033 34.956C213.717 35.331 213.56 35.8168 213.56 36.4134C213.56 37.2656 213.871 37.9091 214.493 38.3438C215.115 38.7784 215.908 38.9957 216.871 38.9957ZM239.256 42.3835C237.295 42.3835 235.612 41.9531 234.206 41.0923C232.808 40.2315 231.73 39.0426 230.972 37.5256C230.222 36 229.847 34.2443 229.847 32.2585C229.847 30.2642 230.23 28.5043 230.997 26.9787C231.764 25.4446 232.847 24.2514 234.244 23.3991C235.651 22.5384 237.313 22.108 239.23 22.108C240.824 22.108 242.234 22.402 243.462 22.9901C244.697 23.5696 245.682 24.392 246.415 25.4574C247.148 26.5142 247.565 27.75 247.668 29.1648H243.244C243.065 28.2187 242.639 27.4304 241.966 26.7997C241.301 26.1605 240.411 25.8409 239.294 25.8409C238.348 25.8409 237.517 26.0966 236.801 26.608C236.085 27.1108 235.527 27.8352 235.126 28.7812C234.734 29.7273 234.538 30.8608 234.538 32.1818C234.538 33.5199 234.734 34.6705 235.126 35.6335C235.518 36.5881 236.068 37.3253 236.776 37.8452C237.491 38.3565 238.331 38.6122 239.294 38.6122C239.976 38.6122 240.585 38.4844 241.122 38.2287C241.668 37.9645 242.124 37.5852 242.49 37.0909C242.857 36.5966 243.108 35.9957 243.244 35.2884H247.668C247.557 36.6776 247.148 37.9091 246.44 38.983C245.733 40.0483 244.77 40.8835 243.551 41.4886C242.332 42.0852 240.901 42.3835 239.256 42.3835ZM255.686 35.8381L255.674 30.2514H256.415L263.472 22.3636H268.88L260.199 32.0284H259.24L255.686 35.8381ZM251.468 42V15.8182H256.096V42H251.468ZM263.792 42L257.4 33.0639L260.519 29.804L269.327 42H263.792ZM279.848 42.3835C277.88 42.3835 276.179 41.9744 274.748 41.1562C273.324 40.3295 272.229 39.1619 271.462 37.6534C270.695 36.1364 270.311 34.3509 270.311 32.2969C270.311 30.277 270.695 28.5043 271.462 26.9787C272.238 25.4446 273.32 24.2514 274.709 23.3991C276.098 22.5384 277.73 22.108 279.605 22.108C280.816 22.108 281.958 22.304 283.032 22.696C284.114 23.0795 285.069 23.6761 285.895 24.4858C286.73 25.2955 287.387 26.3267 287.864 27.5795C288.341 28.8239 288.58 30.3068 288.58 32.0284V33.4474H272.485V30.3281H284.144C284.135 29.4418 283.944 28.6534 283.569 27.9631C283.194 27.2642 282.669 26.7145 281.996 26.3139C281.331 25.9134 280.556 25.7131 279.669 25.7131C278.723 25.7131 277.892 25.9432 277.176 26.4034C276.461 26.8551 275.902 27.4517 275.502 28.1932C275.11 28.9261 274.909 29.7315 274.901 30.6094V33.3324C274.901 34.4744 275.11 35.4545 275.527 36.2727C275.945 37.0824 276.529 37.7045 277.279 38.1392C278.029 38.5653 278.907 38.7784 279.912 38.7784C280.586 38.7784 281.195 38.6847 281.74 38.4972C282.286 38.3011 282.759 38.0156 283.159 37.6406C283.56 37.2656 283.863 36.8011 284.067 36.2472L288.388 36.733C288.115 37.875 287.596 38.8722 286.828 39.7244C286.07 40.5682 285.098 41.2244 283.914 41.6932C282.729 42.1534 281.374 42.3835 279.848 42.3835ZM292.495 42V22.3636H296.982V25.6364H297.187C297.545 24.5028 298.158 23.6293 299.028 23.0156C299.906 22.3935 300.907 22.0824 302.032 22.0824C302.288 22.0824 302.573 22.0952 302.888 22.1207C303.212 22.1378 303.481 22.1676 303.694 22.2102V26.4673C303.498 26.3991 303.187 26.3395 302.761 26.2884C302.343 26.2287 301.938 26.1989 301.546 26.1989C300.702 26.1989 299.944 26.3821 299.271 26.7486C298.606 27.1065 298.082 27.6051 297.698 28.2443C297.315 28.8835 297.123 29.6207 297.123 30.456V42H292.495Z" fill="black" fill-opacity="0.69"/>
<path d="M60.125 49.1591H171.999V51.6136H60.125V49.1591Z" fill="#228822"/>
<path d="M171.992 49.1591H304.397V51.6136H171.992V49.1591Z" fill="black" fill-opacity="0.69"/>
</svg>
